<mxfile host="app.diagrams.net" modified="2021-04-22T02:28:38.084Z" agent="5.0 (Windows NT 10.0; WOW64) AppleWebKit/537.36 (KHTML, like Gecko) Chrome/86.0.4240.198 Safari/537.36" etag="ddPaUDQeBlyAS8Gu3cfE" version="14.6.3" type="github">
  <diagram id="C5RBs43oDa-KdzZeNtuy" name="Page-1">
    <mxGraphModel dx="2208" dy="747" grid="1" gridSize="5" guides="1" tooltips="1" connect="1" arrows="1" fold="1" page="0" pageScale="1" pageWidth="827" pageHeight="1169" math="0" shadow="0">
      <root>
        <mxCell id="WIyWlLk6GJQsqaUBKTNV-0" />
        <mxCell id="WIyWlLk6GJQsqaUBKTNV-1" parent="WIyWlLk6GJQsqaUBKTNV-0" />
        <mxCell id="d32anCT4NEgl-ugnWWsh-29" style="edgeStyle=orthogonalEdgeStyle;rounded=0;orthogonalLoop=1;jettySize=auto;html=1;entryX=0;entryY=0.5;entryDx=0;entryDy=0;strokeWidth=2;endArrow=none;endFill=0;" edge="1" parent="WIyWlLk6GJQsqaUBKTNV-1" source="d32anCT4NEgl-ugnWWsh-11" target="d32anCT4NEgl-ugnWWsh-27">
          <mxGeometry relative="1" as="geometry">
            <Array as="points">
              <mxPoint x="-242.97000000000003" y="164" />
            </Array>
          </mxGeometry>
        </mxCell>
        <mxCell id="d32anCT4NEgl-ugnWWsh-33" style="edgeStyle=orthogonalEdgeStyle;rounded=0;orthogonalLoop=1;jettySize=auto;html=1;entryX=0;entryY=0.5;entryDx=0;entryDy=0;strokeWidth=2;endArrow=none;endFill=0;" edge="1" parent="WIyWlLk6GJQsqaUBKTNV-1" source="d32anCT4NEgl-ugnWWsh-11" target="d32anCT4NEgl-ugnWWsh-30">
          <mxGeometry relative="1" as="geometry" />
        </mxCell>
        <mxCell id="d32anCT4NEgl-ugnWWsh-11" value="" style="line;strokeWidth=10;direction=north;html=1;perimeter=backbonePerimeter;points=[];outlineConnect=0;rounded=1;" vertex="1" parent="WIyWlLk6GJQsqaUBKTNV-1">
          <mxGeometry x="-289.97" y="84.25" width="10" height="110.23" as="geometry" />
        </mxCell>
        <mxCell id="d32anCT4NEgl-ugnWWsh-12" value="&lt;font face=&quot;Times New Roman&quot; style=&quot;font-size: 18px&quot;&gt;&lt;b&gt;Bus-1&lt;/b&gt;&lt;/font&gt;" style="text;html=1;align=center;verticalAlign=middle;resizable=0;points=[];autosize=1;strokeColor=none;strokeWidth=2;direction=west;" vertex="1" parent="WIyWlLk6GJQsqaUBKTNV-1">
          <mxGeometry x="-289.97" y="52.5" width="60" height="20" as="geometry" />
        </mxCell>
        <mxCell id="d32anCT4NEgl-ugnWWsh-26" style="edgeStyle=orthogonalEdgeStyle;rounded=0;orthogonalLoop=1;jettySize=auto;html=1;exitX=0.5;exitY=1;exitDx=0;exitDy=0;strokeWidth=2;endArrow=none;endFill=0;" edge="1" parent="WIyWlLk6GJQsqaUBKTNV-1" source="d32anCT4NEgl-ugnWWsh-23" target="d32anCT4NEgl-ugnWWsh-11">
          <mxGeometry relative="1" as="geometry" />
        </mxCell>
        <mxCell id="d32anCT4NEgl-ugnWWsh-23" value="&lt;span style=&quot;font-family: &amp;#34;times new roman&amp;#34; ; font-size: 21px&quot;&gt;DG-1&lt;/span&gt;" style="ellipse;whiteSpace=wrap;html=1;rounded=1;strokeColor=#b85450;strokeWidth=2;fillColor=#f8cecc;direction=north;" vertex="1" parent="WIyWlLk6GJQsqaUBKTNV-1">
          <mxGeometry x="-409.995" y="99.375" width="79.25" height="80" as="geometry" />
        </mxCell>
        <mxCell id="d32anCT4NEgl-ugnWWsh-27" value="" style="triangle;whiteSpace=wrap;html=1;rotation=90;strokeWidth=2;fillColor=#000000;" vertex="1" parent="WIyWlLk6GJQsqaUBKTNV-1">
          <mxGeometry x="-249.97000000000003" y="179.38" width="14" height="21" as="geometry" />
        </mxCell>
        <mxCell id="d32anCT4NEgl-ugnWWsh-47" style="edgeStyle=orthogonalEdgeStyle;rounded=0;orthogonalLoop=1;jettySize=auto;html=1;strokeWidth=2;endArrow=none;endFill=0;" edge="1" parent="WIyWlLk6GJQsqaUBKTNV-1" source="d32anCT4NEgl-ugnWWsh-30" target="d32anCT4NEgl-ugnWWsh-37">
          <mxGeometry relative="1" as="geometry">
            <Array as="points">
              <mxPoint x="115" y="139" />
              <mxPoint x="115" y="139" />
            </Array>
          </mxGeometry>
        </mxCell>
        <mxCell id="d32anCT4NEgl-ugnWWsh-30" value="&lt;font face=&quot;Times New Roman&quot; style=&quot;font-size: 19px&quot;&gt;&lt;b&gt;Line1-2&lt;/b&gt;&lt;/font&gt;" style="rounded=0;whiteSpace=wrap;html=1;strokeWidth=2;" vertex="1" parent="WIyWlLk6GJQsqaUBKTNV-1">
          <mxGeometry x="-100.00000000000003" y="126.69" width="80" height="25.37" as="geometry" />
        </mxCell>
        <mxCell id="d32anCT4NEgl-ugnWWsh-34" value="&lt;font face=&quot;Times New Roman&quot; style=&quot;font-size: 20px&quot;&gt;Load1&lt;/font&gt;" style="text;html=1;strokeColor=none;fillColor=none;align=center;verticalAlign=middle;whiteSpace=wrap;rounded=0;" vertex="1" parent="WIyWlLk6GJQsqaUBKTNV-1">
          <mxGeometry x="-262.97" y="204" width="40" height="20" as="geometry" />
        </mxCell>
        <mxCell id="d32anCT4NEgl-ugnWWsh-49" style="edgeStyle=orthogonalEdgeStyle;rounded=0;orthogonalLoop=1;jettySize=auto;html=1;entryX=0.5;entryY=0;entryDx=0;entryDy=0;endArrow=none;endFill=0;strokeWidth=2;" edge="1" parent="WIyWlLk6GJQsqaUBKTNV-1" source="d32anCT4NEgl-ugnWWsh-37" target="d32anCT4NEgl-ugnWWsh-40">
          <mxGeometry relative="1" as="geometry">
            <Array as="points">
              <mxPoint x="180" y="139" />
              <mxPoint x="180" y="139" />
            </Array>
          </mxGeometry>
        </mxCell>
        <mxCell id="d32anCT4NEgl-ugnWWsh-52" style="edgeStyle=orthogonalEdgeStyle;rounded=0;orthogonalLoop=1;jettySize=auto;html=1;entryX=0;entryY=0.5;entryDx=0;entryDy=0;endArrow=none;endFill=0;strokeWidth=2;" edge="1" parent="WIyWlLk6GJQsqaUBKTNV-1" source="d32anCT4NEgl-ugnWWsh-37" target="d32anCT4NEgl-ugnWWsh-41">
          <mxGeometry relative="1" as="geometry">
            <Array as="points">
              <mxPoint x="207" y="170" />
            </Array>
          </mxGeometry>
        </mxCell>
        <mxCell id="d32anCT4NEgl-ugnWWsh-54" style="edgeStyle=orthogonalEdgeStyle;rounded=0;orthogonalLoop=1;jettySize=auto;html=1;entryX=1;entryY=0.5;entryDx=0;entryDy=0;endArrow=none;endFill=0;strokeWidth=2;" edge="1" parent="WIyWlLk6GJQsqaUBKTNV-1" source="d32anCT4NEgl-ugnWWsh-37" target="d32anCT4NEgl-ugnWWsh-42">
          <mxGeometry relative="1" as="geometry">
            <Array as="points">
              <mxPoint x="70" y="170" />
              <mxPoint x="70" y="283" />
            </Array>
          </mxGeometry>
        </mxCell>
        <mxCell id="d32anCT4NEgl-ugnWWsh-37" value="" style="line;strokeWidth=10;direction=north;html=1;perimeter=backbonePerimeter;points=[];outlineConnect=0;rounded=1;" vertex="1" parent="WIyWlLk6GJQsqaUBKTNV-1">
          <mxGeometry x="155.52" y="85" width="9.48" height="114.18" as="geometry" />
        </mxCell>
        <mxCell id="d32anCT4NEgl-ugnWWsh-38" value="&lt;font face=&quot;Times New Roman&quot; style=&quot;font-size: 18px&quot;&gt;&lt;b&gt;Bus-2&lt;/b&gt;&lt;/font&gt;" style="text;html=1;align=center;verticalAlign=middle;resizable=0;points=[];autosize=1;strokeColor=none;strokeWidth=2;direction=west;" vertex="1" parent="WIyWlLk6GJQsqaUBKTNV-1">
          <mxGeometry x="104.99999999999999" y="47.5" width="55" height="25" as="geometry" />
        </mxCell>
        <mxCell id="d32anCT4NEgl-ugnWWsh-40" value="&lt;span style=&quot;font-family: &amp;#34;times new roman&amp;#34; ; font-size: 21px&quot;&gt;ESS-2&lt;br&gt;&lt;/span&gt;" style="ellipse;whiteSpace=wrap;html=1;rounded=1;strokeColor=#6c8ebf;strokeWidth=2;fillColor=#dae8fc;direction=north;" vertex="1" parent="WIyWlLk6GJQsqaUBKTNV-1">
          <mxGeometry x="219.995" y="99.365" width="79.25" height="80" as="geometry" />
        </mxCell>
        <mxCell id="d32anCT4NEgl-ugnWWsh-41" value="" style="triangle;whiteSpace=wrap;html=1;rotation=90;strokeWidth=2;fillColor=#000000;" vertex="1" parent="WIyWlLk6GJQsqaUBKTNV-1">
          <mxGeometry x="200" y="195" width="14" height="21" as="geometry" />
        </mxCell>
        <mxCell id="d32anCT4NEgl-ugnWWsh-42" value="&lt;font face=&quot;Times New Roman&quot; style=&quot;font-size: 19px&quot;&gt;&lt;b&gt;Line2-3&lt;br&gt;&lt;/b&gt;&lt;/font&gt;" style="rounded=0;whiteSpace=wrap;html=1;strokeWidth=2;" vertex="1" parent="WIyWlLk6GJQsqaUBKTNV-1">
          <mxGeometry x="-95" y="270" width="80" height="25.37" as="geometry" />
        </mxCell>
        <mxCell id="d32anCT4NEgl-ugnWWsh-43" value="&lt;font face=&quot;Times New Roman&quot; style=&quot;font-size: 20px&quot;&gt;Load2&lt;/font&gt;" style="text;html=1;strokeColor=none;fillColor=none;align=center;verticalAlign=middle;whiteSpace=wrap;rounded=0;" vertex="1" parent="WIyWlLk6GJQsqaUBKTNV-1">
          <mxGeometry x="187" y="220" width="40" height="20" as="geometry" />
        </mxCell>
        <mxCell id="d32anCT4NEgl-ugnWWsh-62" style="edgeStyle=orthogonalEdgeStyle;rounded=0;orthogonalLoop=1;jettySize=auto;html=1;entryX=0;entryY=0.5;entryDx=0;entryDy=0;endArrow=none;endFill=0;strokeWidth=2;" edge="1" parent="WIyWlLk6GJQsqaUBKTNV-1" source="d32anCT4NEgl-ugnWWsh-56" target="d32anCT4NEgl-ugnWWsh-42">
          <mxGeometry relative="1" as="geometry">
            <Array as="points">
              <mxPoint x="-230" y="283" />
              <mxPoint x="-230" y="283" />
            </Array>
          </mxGeometry>
        </mxCell>
        <mxCell id="d32anCT4NEgl-ugnWWsh-95" style="edgeStyle=orthogonalEdgeStyle;rounded=0;orthogonalLoop=1;jettySize=auto;html=1;entryX=0;entryY=0.5;entryDx=0;entryDy=0;endArrow=none;endFill=0;strokeWidth=2;" edge="1" parent="WIyWlLk6GJQsqaUBKTNV-1" source="d32anCT4NEgl-ugnWWsh-56" target="d32anCT4NEgl-ugnWWsh-93">
          <mxGeometry relative="1" as="geometry">
            <Array as="points">
              <mxPoint x="-150" y="358" />
              <mxPoint x="-150" y="358" />
            </Array>
          </mxGeometry>
        </mxCell>
        <mxCell id="d32anCT4NEgl-ugnWWsh-56" value="" style="line;strokeWidth=10;direction=north;html=1;perimeter=backbonePerimeter;points=[];outlineConnect=0;rounded=1;" vertex="1" parent="WIyWlLk6GJQsqaUBKTNV-1">
          <mxGeometry x="-289.97" y="256.7" width="10" height="124.48" as="geometry" />
        </mxCell>
        <mxCell id="d32anCT4NEgl-ugnWWsh-57" value="&lt;font face=&quot;Times New Roman&quot; style=&quot;font-size: 18px&quot;&gt;&lt;b&gt;Bus-3&lt;/b&gt;&lt;/font&gt;" style="text;html=1;align=center;verticalAlign=middle;resizable=0;points=[];autosize=1;strokeColor=none;strokeWidth=2;direction=west;" vertex="1" parent="WIyWlLk6GJQsqaUBKTNV-1">
          <mxGeometry x="-284.97" y="231.7" width="55" height="25" as="geometry" />
        </mxCell>
        <mxCell id="d32anCT4NEgl-ugnWWsh-58" style="edgeStyle=orthogonalEdgeStyle;rounded=0;orthogonalLoop=1;jettySize=auto;html=1;exitX=0.5;exitY=1;exitDx=0;exitDy=0;strokeWidth=2;endArrow=none;endFill=0;" edge="1" parent="WIyWlLk6GJQsqaUBKTNV-1" source="d32anCT4NEgl-ugnWWsh-59" target="d32anCT4NEgl-ugnWWsh-56">
          <mxGeometry relative="1" as="geometry" />
        </mxCell>
        <mxCell id="d32anCT4NEgl-ugnWWsh-59" value="&lt;span style=&quot;font-family: &amp;#34;times new roman&amp;#34; ; font-size: 21px&quot;&gt;DG-3&lt;/span&gt;" style="ellipse;whiteSpace=wrap;html=1;rounded=1;strokeColor=#b85450;strokeWidth=2;fillColor=#f8cecc;direction=north;" vertex="1" parent="WIyWlLk6GJQsqaUBKTNV-1">
          <mxGeometry x="-409.995" y="278.945" width="79.25" height="80" as="geometry" />
        </mxCell>
        <mxCell id="d32anCT4NEgl-ugnWWsh-64" style="edgeStyle=orthogonalEdgeStyle;rounded=0;orthogonalLoop=1;jettySize=auto;html=1;entryX=0.5;entryY=0;entryDx=0;entryDy=0;endArrow=none;endFill=0;strokeWidth=2;" edge="1" parent="WIyWlLk6GJQsqaUBKTNV-1" source="d32anCT4NEgl-ugnWWsh-66" target="d32anCT4NEgl-ugnWWsh-68">
          <mxGeometry relative="1" as="geometry">
            <Array as="points">
              <mxPoint x="220" y="318" />
            </Array>
          </mxGeometry>
        </mxCell>
        <mxCell id="d32anCT4NEgl-ugnWWsh-65" style="edgeStyle=orthogonalEdgeStyle;rounded=0;orthogonalLoop=1;jettySize=auto;html=1;entryX=0;entryY=0.5;entryDx=0;entryDy=0;endArrow=none;endFill=0;strokeWidth=2;" edge="1" parent="WIyWlLk6GJQsqaUBKTNV-1" source="d32anCT4NEgl-ugnWWsh-66" target="d32anCT4NEgl-ugnWWsh-69">
          <mxGeometry relative="1" as="geometry">
            <Array as="points">
              <mxPoint x="207" y="352" />
            </Array>
          </mxGeometry>
        </mxCell>
        <mxCell id="d32anCT4NEgl-ugnWWsh-66" value="" style="line;strokeWidth=10;direction=north;html=1;perimeter=backbonePerimeter;points=[];outlineConnect=0;rounded=1;" vertex="1" parent="WIyWlLk6GJQsqaUBKTNV-1">
          <mxGeometry x="155.52" y="255" width="9.48" height="126.18" as="geometry" />
        </mxCell>
        <mxCell id="d32anCT4NEgl-ugnWWsh-67" value="&lt;font face=&quot;Times New Roman&quot; style=&quot;font-size: 18px&quot;&gt;&lt;b&gt;Bus-4&lt;/b&gt;&lt;/font&gt;" style="text;html=1;align=center;verticalAlign=middle;resizable=0;points=[];autosize=1;strokeColor=none;strokeWidth=2;direction=west;" vertex="1" parent="WIyWlLk6GJQsqaUBKTNV-1">
          <mxGeometry x="104.99999999999999" y="230" width="55" height="25" as="geometry" />
        </mxCell>
        <mxCell id="d32anCT4NEgl-ugnWWsh-68" value="&lt;span style=&quot;font-family: &amp;#34;times new roman&amp;#34; ; font-size: 21px&quot;&gt;ESS-4&lt;br&gt;&lt;/span&gt;" style="ellipse;whiteSpace=wrap;html=1;rounded=1;strokeColor=#6c8ebf;strokeWidth=2;fillColor=#dae8fc;direction=north;" vertex="1" parent="WIyWlLk6GJQsqaUBKTNV-1">
          <mxGeometry x="219.995" y="278.08500000000004" width="79.25" height="80" as="geometry" />
        </mxCell>
        <mxCell id="d32anCT4NEgl-ugnWWsh-69" value="" style="triangle;whiteSpace=wrap;html=1;rotation=90;strokeWidth=2;fillColor=#000000;" vertex="1" parent="WIyWlLk6GJQsqaUBKTNV-1">
          <mxGeometry x="200" y="377" width="14" height="21" as="geometry" />
        </mxCell>
        <mxCell id="d32anCT4NEgl-ugnWWsh-70" value="&lt;font face=&quot;Times New Roman&quot; style=&quot;font-size: 20px&quot;&gt;Load4&lt;/font&gt;" style="text;html=1;strokeColor=none;fillColor=none;align=center;verticalAlign=middle;whiteSpace=wrap;rounded=0;" vertex="1" parent="WIyWlLk6GJQsqaUBKTNV-1">
          <mxGeometry x="187" y="402" width="40" height="20" as="geometry" />
        </mxCell>
        <mxCell id="d32anCT4NEgl-ugnWWsh-73" style="edgeStyle=orthogonalEdgeStyle;rounded=0;orthogonalLoop=1;jettySize=auto;html=1;endArrow=none;endFill=0;strokeWidth=2;" edge="1" parent="WIyWlLk6GJQsqaUBKTNV-1" source="d32anCT4NEgl-ugnWWsh-71" target="d32anCT4NEgl-ugnWWsh-66">
          <mxGeometry relative="1" as="geometry" />
        </mxCell>
        <mxCell id="d32anCT4NEgl-ugnWWsh-74" style="edgeStyle=orthogonalEdgeStyle;rounded=0;orthogonalLoop=1;jettySize=auto;html=1;exitX=0;exitY=0.5;exitDx=0;exitDy=0;endArrow=none;endFill=0;strokeWidth=2;" edge="1" parent="WIyWlLk6GJQsqaUBKTNV-1" source="d32anCT4NEgl-ugnWWsh-71" target="d32anCT4NEgl-ugnWWsh-56">
          <mxGeometry relative="1" as="geometry">
            <Array as="points">
              <mxPoint x="-270" y="319" />
              <mxPoint x="-270" y="319" />
            </Array>
          </mxGeometry>
        </mxCell>
        <mxCell id="d32anCT4NEgl-ugnWWsh-71" value="&lt;font face=&quot;Times New Roman&quot; style=&quot;font-size: 19px&quot;&gt;&lt;b&gt;Line3-4&lt;br&gt;&lt;/b&gt;&lt;/font&gt;" style="rounded=0;whiteSpace=wrap;html=1;strokeWidth=2;" vertex="1" parent="WIyWlLk6GJQsqaUBKTNV-1">
          <mxGeometry x="-95" y="305.41" width="80" height="25.37" as="geometry" />
        </mxCell>
        <mxCell id="d32anCT4NEgl-ugnWWsh-75" style="edgeStyle=orthogonalEdgeStyle;rounded=0;orthogonalLoop=1;jettySize=auto;html=1;entryX=0.5;entryY=0;entryDx=0;entryDy=0;endArrow=none;endFill=0;strokeWidth=2;" edge="1" parent="WIyWlLk6GJQsqaUBKTNV-1" source="d32anCT4NEgl-ugnWWsh-77" target="d32anCT4NEgl-ugnWWsh-79">
          <mxGeometry relative="1" as="geometry">
            <Array as="points">
              <mxPoint x="220" y="510" />
            </Array>
          </mxGeometry>
        </mxCell>
        <mxCell id="d32anCT4NEgl-ugnWWsh-76" style="edgeStyle=orthogonalEdgeStyle;rounded=0;orthogonalLoop=1;jettySize=auto;html=1;entryX=0;entryY=0.5;entryDx=0;entryDy=0;endArrow=none;endFill=0;strokeWidth=2;" edge="1" parent="WIyWlLk6GJQsqaUBKTNV-1" source="d32anCT4NEgl-ugnWWsh-77" target="d32anCT4NEgl-ugnWWsh-80">
          <mxGeometry relative="1" as="geometry">
            <Array as="points">
              <mxPoint x="207" y="544" />
            </Array>
          </mxGeometry>
        </mxCell>
        <mxCell id="d32anCT4NEgl-ugnWWsh-77" value="" style="line;strokeWidth=10;direction=north;html=1;perimeter=backbonePerimeter;points=[];outlineConnect=0;rounded=1;" vertex="1" parent="WIyWlLk6GJQsqaUBKTNV-1">
          <mxGeometry x="155.52" y="447" width="9.48" height="126.18" as="geometry" />
        </mxCell>
        <mxCell id="d32anCT4NEgl-ugnWWsh-78" value="&lt;font face=&quot;Times New Roman&quot; style=&quot;font-size: 18px&quot;&gt;&lt;b&gt;Bus-6&lt;br&gt;&lt;/b&gt;&lt;/font&gt;" style="text;html=1;align=center;verticalAlign=middle;resizable=0;points=[];autosize=1;strokeColor=none;strokeWidth=2;direction=west;" vertex="1" parent="WIyWlLk6GJQsqaUBKTNV-1">
          <mxGeometry x="104.99999999999999" y="422" width="55" height="25" as="geometry" />
        </mxCell>
        <mxCell id="d32anCT4NEgl-ugnWWsh-79" value="&lt;span style=&quot;font-family: &amp;#34;times new roman&amp;#34; ; font-size: 21px&quot;&gt;ESS-6&lt;br&gt;&lt;/span&gt;" style="ellipse;whiteSpace=wrap;html=1;rounded=1;strokeColor=#6c8ebf;strokeWidth=2;fillColor=#dae8fc;direction=north;" vertex="1" parent="WIyWlLk6GJQsqaUBKTNV-1">
          <mxGeometry x="220" y="470.09" width="80.01" height="80" as="geometry" />
        </mxCell>
        <mxCell id="d32anCT4NEgl-ugnWWsh-80" value="" style="triangle;whiteSpace=wrap;html=1;rotation=90;strokeWidth=2;fillColor=#000000;" vertex="1" parent="WIyWlLk6GJQsqaUBKTNV-1">
          <mxGeometry x="200" y="569" width="14" height="21" as="geometry" />
        </mxCell>
        <mxCell id="d32anCT4NEgl-ugnWWsh-81" value="&lt;font face=&quot;Times New Roman&quot; style=&quot;font-size: 20px&quot;&gt;Load6&lt;/font&gt;" style="text;html=1;strokeColor=none;fillColor=none;align=center;verticalAlign=middle;whiteSpace=wrap;rounded=0;" vertex="1" parent="WIyWlLk6GJQsqaUBKTNV-1">
          <mxGeometry x="187" y="594" width="40" height="20" as="geometry" />
        </mxCell>
        <mxCell id="d32anCT4NEgl-ugnWWsh-89" style="edgeStyle=orthogonalEdgeStyle;rounded=0;orthogonalLoop=1;jettySize=auto;html=1;endArrow=none;endFill=0;strokeWidth=2;" edge="1" parent="WIyWlLk6GJQsqaUBKTNV-1" source="d32anCT4NEgl-ugnWWsh-82" target="d32anCT4NEgl-ugnWWsh-77">
          <mxGeometry relative="1" as="geometry" />
        </mxCell>
        <mxCell id="d32anCT4NEgl-ugnWWsh-82" value="&lt;font face=&quot;Times New Roman&quot; style=&quot;font-size: 19px&quot;&gt;&lt;b&gt;Line5-6&lt;br&gt;&lt;/b&gt;&lt;/font&gt;" style="rounded=0;whiteSpace=wrap;html=1;strokeWidth=2;" vertex="1" parent="WIyWlLk6GJQsqaUBKTNV-1">
          <mxGeometry x="-95" y="497.07" width="80" height="25.37" as="geometry" />
        </mxCell>
        <mxCell id="d32anCT4NEgl-ugnWWsh-88" style="edgeStyle=orthogonalEdgeStyle;rounded=0;orthogonalLoop=1;jettySize=auto;html=1;entryX=0;entryY=0.5;entryDx=0;entryDy=0;endArrow=none;endFill=0;strokeWidth=2;" edge="1" parent="WIyWlLk6GJQsqaUBKTNV-1" source="d32anCT4NEgl-ugnWWsh-84" target="d32anCT4NEgl-ugnWWsh-82">
          <mxGeometry relative="1" as="geometry" />
        </mxCell>
        <mxCell id="d32anCT4NEgl-ugnWWsh-84" value="" style="line;strokeWidth=10;direction=north;html=1;perimeter=backbonePerimeter;points=[];outlineConnect=0;rounded=1;" vertex="1" parent="WIyWlLk6GJQsqaUBKTNV-1">
          <mxGeometry x="-289.97" y="447.52" width="10" height="124.48" as="geometry" />
        </mxCell>
        <mxCell id="d32anCT4NEgl-ugnWWsh-85" value="&lt;font face=&quot;Times New Roman&quot; style=&quot;font-size: 18px&quot;&gt;&lt;b&gt;Bus-5&lt;/b&gt;&lt;/font&gt;" style="text;html=1;align=center;verticalAlign=middle;resizable=0;points=[];autosize=1;strokeColor=none;strokeWidth=2;direction=west;" vertex="1" parent="WIyWlLk6GJQsqaUBKTNV-1">
          <mxGeometry x="-284.97" y="422.52" width="55" height="25" as="geometry" />
        </mxCell>
        <mxCell id="d32anCT4NEgl-ugnWWsh-86" style="edgeStyle=orthogonalEdgeStyle;rounded=0;orthogonalLoop=1;jettySize=auto;html=1;exitX=0.5;exitY=1;exitDx=0;exitDy=0;strokeWidth=2;endArrow=none;endFill=0;" edge="1" parent="WIyWlLk6GJQsqaUBKTNV-1" source="d32anCT4NEgl-ugnWWsh-87" target="d32anCT4NEgl-ugnWWsh-84">
          <mxGeometry relative="1" as="geometry" />
        </mxCell>
        <mxCell id="d32anCT4NEgl-ugnWWsh-87" value="&lt;span style=&quot;font-family: &amp;#34;times new roman&amp;#34; ; font-size: 21px&quot;&gt;DG-5&lt;/span&gt;" style="ellipse;whiteSpace=wrap;html=1;rounded=1;strokeColor=#b85450;strokeWidth=2;fillColor=#f8cecc;direction=north;" vertex="1" parent="WIyWlLk6GJQsqaUBKTNV-1">
          <mxGeometry x="-409.995" y="469.765" width="79.25" height="80" as="geometry" />
        </mxCell>
        <mxCell id="d32anCT4NEgl-ugnWWsh-90" style="edgeStyle=orthogonalEdgeStyle;rounded=0;orthogonalLoop=1;jettySize=auto;html=1;entryX=0;entryY=0.5;entryDx=0;entryDy=0;strokeWidth=2;endArrow=none;endFill=0;" edge="1" parent="WIyWlLk6GJQsqaUBKTNV-1" target="d32anCT4NEgl-ugnWWsh-91" source="d32anCT4NEgl-ugnWWsh-84">
          <mxGeometry relative="1" as="geometry">
            <mxPoint x="-271.97" y="560" as="sourcePoint" />
            <Array as="points">
              <mxPoint x="-234" y="545" />
            </Array>
          </mxGeometry>
        </mxCell>
        <mxCell id="d32anCT4NEgl-ugnWWsh-91" value="" style="triangle;whiteSpace=wrap;html=1;rotation=90;strokeWidth=2;fillColor=#000000;" vertex="1" parent="WIyWlLk6GJQsqaUBKTNV-1">
          <mxGeometry x="-240.97000000000003" y="575.38" width="14" height="21" as="geometry" />
        </mxCell>
        <mxCell id="d32anCT4NEgl-ugnWWsh-92" value="&lt;font face=&quot;Times New Roman&quot; style=&quot;font-size: 20px&quot;&gt;Load5&lt;/font&gt;" style="text;html=1;strokeColor=none;fillColor=none;align=center;verticalAlign=middle;whiteSpace=wrap;rounded=0;" vertex="1" parent="WIyWlLk6GJQsqaUBKTNV-1">
          <mxGeometry x="-253.97000000000003" y="600" width="40" height="20" as="geometry" />
        </mxCell>
        <mxCell id="d32anCT4NEgl-ugnWWsh-98" style="edgeStyle=orthogonalEdgeStyle;rounded=0;orthogonalLoop=1;jettySize=auto;html=1;exitX=1;exitY=0.5;exitDx=0;exitDy=0;endArrow=none;endFill=0;strokeWidth=2;" edge="1" parent="WIyWlLk6GJQsqaUBKTNV-1" source="d32anCT4NEgl-ugnWWsh-93" target="d32anCT4NEgl-ugnWWsh-84">
          <mxGeometry relative="1" as="geometry">
            <Array as="points">
              <mxPoint x="-130" y="475" />
            </Array>
          </mxGeometry>
        </mxCell>
        <mxCell id="d32anCT4NEgl-ugnWWsh-93" value="&lt;font face=&quot;Times New Roman&quot; style=&quot;font-size: 19px&quot;&gt;&lt;b&gt;Line3-5&lt;br&gt;&lt;/b&gt;&lt;/font&gt;" style="rounded=0;whiteSpace=wrap;html=1;strokeWidth=2;rotation=90;" vertex="1" parent="WIyWlLk6GJQsqaUBKTNV-1">
          <mxGeometry x="-170" y="402" width="80" height="25.37" as="geometry" />
        </mxCell>
      </root>
    </mxGraphModel>
  </diagram>
</mxfile>
